<svg width="16" height="16" viewBox="0 0 16 16" fill="none" xmlns="http://www.w3.org/2000/svg">
    <path d="M1.66669 7.29227C1.66669 6.47615 2.04041 5.70496 2.68097 5.19925L6.34764 2.30451C7.31646 1.53965 8.68358 1.53965 9.65241 2.30451L13.3191 5.19925C13.9596 5.70496 14.3334 6.47615 14.3334 7.29227V11.6667C14.3334 13.1394 13.1394 14.3333 11.6667 14.3333H10.6667C10.2985 14.3333 10 14.0349 10 13.6667V11.6667C10 10.9303 9.40307 10.3333 8.66669 10.3333H7.33335C6.59697 10.3333 6.00002 10.9303 6.00002 11.6667V13.6667C6.00002 14.0349 5.70154 14.3333 5.33335 14.3333H4.33335C2.86059 14.3333 1.66669 13.1394 1.66669 11.6667L1.66669 7.29227Z" fill="currentColor" stroke="currentColor"/>
</svg>
