<svg width="16" height="15" viewBox="0 0 16 15" fill="none" xmlns="http://www.w3.org/2000/svg">
    <path d="M2.05762 1.50171C3.83986 0.832891 5.82713 0.832891 7.60938 1.50171L7.66699 1.52319V13.8494L6.7207 13.4949C5.50942 13.0404 4.15658 13.0403 2.94531 13.4949C2.05475 13.8288 1.0001 13.2292 1 12.2195V2.98608C1 2.31482 1.43446 1.73565 2.05762 1.50171ZM8.72461 1.50171C10.5068 0.832956 12.4932 0.832956 14.2754 1.50171C14.8986 1.73561 15.333 2.31477 15.333 2.98608V12.2195C15.3329 13.2293 14.2783 13.829 13.3877 13.4949C12.1764 13.0403 10.8237 13.0403 9.6123 13.4949L8.66699 13.8484V1.52319L8.72461 1.50171Z" fill="currentColor"/>
</svg>
