<svg width="16" height="16" viewBox="0 0 16 16" fill="none" xmlns="http://www.w3.org/2000/svg">
    <path d="M11.3333 0.833252C11.6992 0.833252 12.0529 0.884998 12.388 0.980713C11.9438 1.40545 11.6664 2.00326 11.6663 2.66626C11.6663 3.95492 12.7116 5.00024 14.0003 5.00024C14.4256 5.00019 14.823 4.88379 15.1663 4.68481V11.3333C15.1663 13.4503 13.4504 15.1663 11.3333 15.1663H4.66632C2.54938 15.1661 0.833313 13.4502 0.833313 11.3333V4.66626C0.833489 2.54943 2.54949 0.833428 4.66632 0.833252H11.3333ZM11.6624 5.79028C11.4547 5.6086 11.1392 5.62961 10.9573 5.83716L8.94562 8.13696L7.31964 6.78247C7.11111 6.60893 6.80203 6.63296 6.62335 6.83716L4.29034 9.50415C4.10866 9.71189 4.12967 10.0274 4.33722 10.2092C4.54504 10.3911 4.86143 10.3702 5.04327 10.1624L7.05499 7.86353L8.67999 9.21704C8.86254 9.36916 9.12224 9.37004 9.30402 9.23071L9.37628 9.16235L11.7093 6.49536C11.891 6.28754 11.8702 5.97209 11.6624 5.79028ZM13.4339 1.46021C14.1742 1.94625 14.7354 2.68163 14.9993 3.54712C14.7832 3.79243 14.4794 3.95862 14.136 3.99341L14.0003 4.00024C13.31 4.00024 12.7415 3.47531 12.6732 2.80298L12.6663 2.66626C12.6664 2.13265 12.9808 1.67318 13.4339 1.46021Z" fill="currentColor"/>
    <circle cx="1.33333" cy="1.33333" r="1.33333" transform="matrix(-1 0 0 1 15.3333 1.33325)" fill="currentColor"/>
</svg>
