<svg width="89" height="88" viewBox="0 0 89 88" fill="none" xmlns="http://www.w3.org/2000/svg">
<g filter="url(#filter0_d_82_309)">
<path d="M42.3433 18.6625C43.2761 17.1125 45.5232 17.1125 46.456 18.6625L51.1169 26.4073C51.452 26.9641 51.9986 27.3612 52.6317 27.5079L61.4378 29.5474C63.2001 29.9555 63.8945 32.0927 62.7086 33.4588L56.7832 40.2848C56.3572 40.7756 56.1484 41.4181 56.2046 42.0656L56.9861 51.0709C57.1425 52.8731 55.3246 54.1939 53.6589 53.4883L45.3359 49.9622C44.7375 49.7087 44.0618 49.7087 43.4634 49.9622L35.1404 53.4883C33.4747 54.1939 31.6568 52.8731 31.8132 51.0709L32.5947 42.0656C32.6509 41.4181 32.4421 40.7756 32.0161 40.2848L26.0907 33.4588C24.9048 32.0927 25.5992 29.9555 27.3616 29.5474L36.1676 27.5079C36.8007 27.3612 37.3473 26.9641 37.6824 26.4073L42.3433 18.6625Z" fill="#FFC739" stroke="#FFC739" stroke-width="3"/>
</g>
<defs>
<filter id="filter0_d_82_309" x="-3.60034" y="-2.75446" width="96" height="96" filterUnits="userSpaceOnUse" color-interpolation-filters="sRGB">
<feFlood flood-opacity="0" result="BackgroundImageFix"/>
<feColorMatrix in="SourceAlpha" type="matrix" values="0 0 0 0 0 0 0 0 0 0 0 0 0 0 0 0 0 0 127 0" result="hardAlpha"/>
<feOffset dy="8"/>
<feGaussianBlur stdDeviation="12"/>
<feComposite in2="hardAlpha" operator="out"/>
<feColorMatrix type="matrix" values="0 0 0 0 0 0 0 0 0 0 0 0 0 0 0 0 0 0 0.1 0"/>
<feBlend mode="normal" in2="BackgroundImageFix" result="effect1_dropShadow_82_309"/>
<feBlend mode="normal" in="SourceGraphic" in2="effect1_dropShadow_82_309" result="shape"/>
</filter>
</defs>
</svg>
