<svg width="18" height="18" viewBox="0 0 18 18" fill="none" xmlns="http://www.w3.org/2000/svg">
<circle cx="2.55319" cy="2.55319" r="2.55319" transform="matrix(-1 0 0 1 11.7129 3.74994)" stroke="white" stroke-width="1.125"/>
<path d="M4.69141 12.6445C4.69141 12.0954 5.03663 11.6055 5.5538 11.4208C7.88548 10.588 10.4335 10.588 12.7652 11.4208C13.2824 11.6055 13.6276 12.0954 13.6276 12.6445V13.4842C13.6276 14.2421 12.9563 14.8244 12.206 14.7172L11.9558 14.6814C10.101 14.4165 8.21798 14.4165 6.36319 14.6814L6.11303 14.7172C5.36271 14.8244 4.69141 14.2421 4.69141 13.4842V12.6445Z" stroke="white" stroke-width="1.125"/>
<path d="M12.9893 8.92701C14.0972 8.92701 14.9954 8.02886 14.9954 6.92093C14.9954 5.81301 14.0972 4.91486 12.9893 4.91486" stroke="white" stroke-width="1.125" stroke-linecap="round"/>
<path d="M15.1863 13.5037L15.3829 13.5318C15.9724 13.616 16.4999 13.1586 16.4999 12.563V11.9033C16.4999 11.4718 16.2286 11.0869 15.8223 10.9418C15.4169 10.797 15.0033 10.6843 14.585 10.6036" stroke="white" stroke-width="1.125" stroke-linecap="round"/>
<path d="M5.01072 8.92701C3.90279 8.92701 3.00464 8.02886 3.00464 6.92093C3.00464 5.81301 3.90279 4.91486 5.01072 4.91486" stroke="white" stroke-width="1.125" stroke-linecap="round"/>
<path d="M2.81369 13.5037L2.61714 13.5318C2.0276 13.616 1.50015 13.1586 1.50015 12.563V11.9033C1.50015 11.4718 1.77139 11.0869 2.17774 10.9418C2.58308 10.797 2.99674 10.6843 3.41504 10.6036" stroke="white" stroke-width="1.125" stroke-linecap="round"/>
</svg>
